<?xml version="1.0" encoding="UTF-8"?>
<svg version="1.1" xmlns="http://www.w3.org/2000/svg" width="192" height="192">
<path d="M0 0 C0.74121094 0.00515625 1.48242188 0.0103125 2.24609375 0.015625 C7.72069225 0.09569225 7.72069225 0.09569225 8.875 1.25 C9.18113232 5.64065449 8.57288407 8.69941474 6.83984375 12.71875 C6.37175293 13.82001221 5.90366211 14.92127441 5.42138672 16.0559082 C4.88518678 17.28731378 4.34888722 18.51867599 3.8125 19.75 C3.24651068 21.07141037 2.68161127 22.39328799 2.11767578 23.71557617 C0.81458185 26.7663884 -0.49499609 29.81432547 -1.80810547 32.86083984 C-4.46467924 39.03091395 -7.0937249 45.21263971 -9.72265625 51.39453125 C-12.69152402 58.37479542 -15.66049879 65.35500201 -18.63696289 72.33203125 C-19.10701248 73.4339682 -19.57706207 74.53590515 -20.06135559 75.67123413 C-21.00179278 77.87548741 -21.94253584 80.07961021 -22.8835907 82.28359985 C-25.30795804 87.96675059 -27.71857909 93.65525439 -30.10839844 99.35302734 C-30.59714447 100.51609909 -31.0858905 101.67917084 -31.58944702 102.87748718 C-32.51358318 105.07859664 -33.43503574 107.28083569 -34.35317993 109.48445129 C-42.00191224 127.68845612 -42.00191224 127.68845612 -45.125 129.25 C-47.45668218 129.34715342 -49.79129957 129.37978217 -52.125 129.375 C-53.383125 129.37757813 -54.64125 129.38015625 -55.9375 129.3828125 C-59.125 129.25 -59.125 129.25 -61.125 128.25 C-61.62526084 123.7476524 -61.13877457 120.87527179 -59.15625 116.80078125 C-56.6224748 111.40098391 -54.2780909 105.94057383 -51.98046875 100.4375 C-51.60445023 99.53796097 -51.2284317 98.63842194 -50.84101868 97.71162415 C-49.66348203 94.89164962 -48.48790092 92.0708653 -47.3125 89.25 C-46.14982364 86.46395043 -44.98665504 83.67810676 -43.82342529 80.89228821 C-43.05293285 79.04697895 -42.28262857 77.20159112 -41.51251221 75.35612488 C-38.67859171 68.56733788 -35.82881639 61.78534569 -32.97138977 55.00642395 C-30.8788271 50.04183353 -28.79181003 45.07497024 -26.7109375 40.10546875 C-26.44257584 39.46473419 -26.17421417 38.82399963 -25.89772034 38.16384888 C-24.82890478 35.6117472 -23.76025428 33.05957696 -22.69238281 30.50708008 C-21.36482427 27.33431124 -20.03466089 24.16270024 -18.69824219 20.99365234 C-17.618043 18.43152491 -16.55359847 15.86347628 -15.49707031 13.29150391 C-14.96958515 12.02368641 -14.44192252 10.75594272 -13.9140625 9.48828125 C-13.4495166 8.36075439 -12.9849707 7.23322754 -12.50634766 6.0715332 C-9.48574334 -0.09833672 -6.54693678 -0.18409664 0 0 Z " fill="#018C94" transform="translate(119.125,30.75)"/>
<path d="M0 0 C1.75466919 1.26353455 1.75466919 1.26353455 3.63330078 2.96850586 C4.33682678 3.60666229 5.04035278 4.24481873 5.76519775 4.90231323 C9.64762094 8.54653176 13.45974755 12.25615305 17.2421875 16.00390625 C18.09177032 16.84541733 18.94135315 17.68692841 19.81668091 18.55393982 C21.59799992 20.32151507 23.37783584 22.09058609 25.15625 23.86108398 C26.9750561 25.66829389 28.79833987 27.47100809 30.62597656 29.26928711 C33.27868974 31.87946753 35.91802862 34.50252138 38.5546875 37.12890625 C39.37234589 37.92905655 40.19000427 38.72920685 41.03244019 39.55360413 C48.0603775 46.60878005 48.0603775 46.60878005 49 52 C48.80453923 57.47290164 47.40865939 60.73917577 44 65 C42.35360035 66.35827971 40.68704193 67.69254251 39 69 C38.34 69.825 37.68 70.65 37 71.5 C34.89680365 74.12899543 32.62100457 75.90319635 30 78 C29.34 78.825 28.68 79.65 28 80.5 C25.90532454 83.11834432 23.62909541 84.93935765 21 87 C20.67 87.66 20.34 88.32 20 89 C19.34 89 18.68 89 18 89 C17.34 90.32 16.68 91.64 16 93 C15.34 93 14.68 93 14 93 C13.67 93.99 13.34 94.98 13 96 C12.34 96 11.68 96 11 96 C10.731875 96.639375 10.46375 97.27875 10.1875 97.9375 C9 100 9 100 6 101 C5.690625 101.639375 5.38125 102.27875 5.0625 102.9375 C3.70349101 105.57557628 2.74523626 105.92982315 0 107 C-9.82941537 108.28444905 -9.82941537 108.28444905 -13.89453125 105.87890625 C-15.25 104.5 -15.25 104.5 -17 102 C-15.65917834 98.00349168 -14.01458574 95.66632461 -10.9934082 92.74804688 C-10.16948074 91.94371216 -9.34555328 91.13937744 -8.49665833 90.31066895 C-7.60701889 89.45533569 -6.71737946 88.60000244 -5.80078125 87.71875 C-3.93384348 85.88973245 -2.06731939 84.06029259 -0.20117188 82.23046875 C2.74800387 79.35263098 5.70444903 76.48243819 8.66821289 73.61962891 C11.52748786 70.85598282 14.36305065 68.06860691 17.19921875 65.28125 C18.54278694 63.99825012 18.54278694 63.99825012 19.91349792 62.68933105 C20.7279689 61.88499634 21.54243988 61.08066162 22.3815918 60.25195312 C23.10614059 59.54977661 23.83068939 58.8476001 24.57719421 58.12414551 C26.27475406 56.06646616 26.27475406 56.06646616 25.78865051 53.42175293 C25.19937349 51.61222725 24.60179985 49.80539955 24 48 C23.4225 47.71125 22.845 47.4225 22.25 47.125 C19.20774755 45.60387378 17.26157493 43.51286104 15 41 C15 40.34 15 39.68 15 39 C14.443125 38.773125 13.88625 38.54625 13.3125 38.3125 C10.33840412 36.62449964 8.27991135 34.53323483 6 32 C6 31.34 6 30.68 6 30 C5.01 29.67 4.02 29.34 3 29 C3 28.34 3 27.68 3 27 C2.443125 26.773125 1.88625 26.54625 1.3125 26.3125 C-1.66159588 24.62449964 -3.72008865 22.53323483 -6 20 C-6 19.34 -6 18.68 -6 18 C-6.99 17.67 -7.98 17.34 -9 17 C-9 16.34 -9 15.68 -9 15 C-9.66 15 -10.32 15 -11 15 C-12.33256282 11.35879332 -11.65840377 9.33123446 -10.1875 5.8125 C-9.83042969 4.93207031 -9.47335938 4.05164062 -9.10546875 3.14453125 C-7.07289681 -0.79851468 -4.09869751 -0.60721445 0 0 Z " fill="#01B0B3" transform="translate(141,42)"/>
<path d="M0 0 C1.82917969 0.00193359 1.82917969 0.00193359 3.6953125 0.00390625 C6.875 0.4375 6.875 0.4375 8.76953125 1.82421875 C9.875 3.4375 9.875 3.4375 10.4375 5.6875 C9.58884591 9.83647554 6.99097972 12.63634725 3.875 15.4375 C3.215 15.4375 2.555 15.4375 1.875 15.4375 C1.545 16.4275 1.215 17.4175 0.875 18.4375 C0.215 18.4375 -0.445 18.4375 -1.125 18.4375 C-1.3725 19.00984375 -1.62 19.5821875 -1.875 20.171875 C-3.31816199 22.78760611 -5.00716222 24.58523456 -7.125 26.6875 C-8.176875 27.74710938 -8.176875 27.74710938 -9.25 28.828125 C-11.125 30.4375 -11.125 30.4375 -13.125 30.4375 C-13.49105347 31.29903687 -13.49105347 31.29903687 -13.86450195 32.17797852 C-15.34676994 34.83503646 -17.07169332 36.51269232 -19.29296875 38.58984375 C-20.10314453 39.36650391 -20.91332031 40.14316406 -21.74804688 40.94335938 C-23.46192085 42.56847217 -25.18334845 44.18565457 -26.91210938 45.79492188 C-27.71841797 46.57287109 -28.52472656 47.35082031 -29.35546875 48.15234375 C-30.10207764 48.85480225 -30.84868652 49.55726074 -31.61791992 50.28100586 C-33.3941925 52.33190469 -33.3941925 52.33190469 -32.91661072 54.85342407 C-32.03394039 57.73474831 -31.13267103 58.88354135 -28.96630859 60.93920898 C-28.30247162 61.58014999 -27.63863464 62.221091 -26.9546814 62.88145447 C-25.87496567 63.89726341 -25.87496567 63.89726341 -24.7734375 64.93359375 C-23.26784663 66.3934858 -21.76265016 67.85378469 -20.2578125 69.31445312 C-17.87594496 71.60302511 -15.48880594 73.88563185 -13.09375 76.16040039 C-10.78432674 78.36133203 -8.49684329 80.58328396 -6.2109375 82.80859375 C-5.48707855 83.48377548 -4.7632196 84.15895721 -4.01742554 84.854599 C-2.18673426 86.64787229 -0.55194796 88.30886655 0.875 90.4375 C0.87952733 94.53835262 -0.45705397 97.62832458 -2.1875 101.3125 C-2.54972656 102.09367187 -2.91195312 102.87484375 -3.28515625 103.6796875 C-3.56230469 104.25976562 -3.83945312 104.83984375 -4.125 105.4375 C-6.9633881 106.0072996 -8.36504063 106.1550933 -11.125 105.4375 C-14.85666521 102.76309583 -17.95269023 99.49381993 -21.14453125 96.20703125 C-22.09248812 95.25362664 -23.04178551 94.30155321 -23.99235535 93.35075378 C-25.97750176 91.35789184 -27.95050097 89.35399113 -29.91479492 87.34057617 C-32.42745403 84.76565504 -34.96142401 82.2131062 -37.50391102 79.66766834 C-39.46361348 77.70325485 -41.41515203 75.73090107 -43.36398888 73.75571251 C-44.74732131 72.35452782 -46.13459388 70.9572366 -47.52192688 69.56001282 C-48.36007431 68.69949814 -49.19822174 67.83898346 -50.06176758 66.95239258 C-50.8001033 66.19960526 -51.53843903 65.44681793 -52.29914856 64.67121887 C-54.72068843 61.70874383 -56.04501009 58.99463698 -56.2421875 55.15625 C-55.69765552 50.16763445 -54.94177424 47.02295459 -51.125 43.4375 C-50.465 43.4375 -49.805 43.4375 -49.125 43.4375 C-48.856875 42.839375 -48.58875 42.24125 -48.3125 41.625 C-47.12582594 39.43902146 -46.02900887 38.02417406 -44.125 36.4375 C-43.465 36.4375 -42.805 36.4375 -42.125 36.4375 C-41.856875 35.798125 -41.58875 35.15875 -41.3125 34.5 C-40.125 32.4375 -40.125 32.4375 -37.125 31.4375 C-35.91617904 29.43733534 -35.91617904 29.43733534 -35.125 27.4375 C-34.465 27.4375 -33.805 27.4375 -33.125 27.4375 C-32.795 26.4475 -32.465 25.4575 -32.125 24.4375 C-31.465 24.4375 -30.805 24.4375 -30.125 24.4375 C-29.856875 23.798125 -29.58875 23.15875 -29.3125 22.5 C-28.125 20.4375 -28.125 20.4375 -25.125 19.4375 C-24.795 18.4475 -24.465 17.4575 -24.125 16.4375 C-22.47860035 15.07922029 -20.81204193 13.74495749 -19.125 12.4375 C-18.795 11.7775 -18.465 11.1175 -18.125 10.4375 C-17.465 10.4375 -16.805 10.4375 -16.125 10.4375 C-15.795 9.4475 -15.465 8.4575 -15.125 7.4375 C-14.465 7.4375 -13.805 7.4375 -13.125 7.4375 C-12.795 6.4475 -12.465 5.4575 -12.125 4.4375 C-8.23525864 0.46881555 -5.47815118 -0.08723171 0 0 Z " fill="#018690" transform="translate(58.125,41.5625)"/>
<path d="M0 0 C0.33 0.99 0.66 1.98 1 3 C-4.94 8.94 -10.88 14.88 -17 21 C-17.66 20.34 -18.32 19.68 -19 19 C-18.38125 18.7525 -17.7625 18.505 -17.125 18.25 C-14.61289704 16.77229238 -14.23892656 15.56044823 -13 13 C-12.01 12.67 -11.02 12.34 -10 12 C-8.79117904 9.99983534 -8.79117904 9.99983534 -8 8 C-7.34 8 -6.68 8 -6 8 C-5.67 7.01 -5.34 6.02 -5 5 C-4.34 5 -3.68 5 -3 5 C-2.690625 4.360625 -2.38125 3.72125 -2.0625 3.0625 C-1 1 -1 1 0 0 Z " fill="#04969E" transform="translate(31,61)"/>
<path d="M0 0 C1.46751239 0.00399142 2.93502584 0.01874717 4.40234375 0.04296875 C5.14806641 0.04361328 5.89378906 0.04425781 6.66210938 0.04492188 C12.19956216 0.09018716 12.19956216 0.09018716 13.33984375 1.23046875 C13.83416761 6.42086927 12.53775229 9.65149263 10.33984375 14.23046875 C9.10837083 10.53605 9.89685384 9.71062089 11.33984375 6.23046875 C11.33984375 4.91046875 11.33984375 3.59046875 11.33984375 2.23046875 C9.25766013 2.12214706 7.17385246 2.04473334 5.08984375 1.98046875 C3.9296875 1.9340625 2.76953125 1.88765625 1.57421875 1.83984375 C-1.72682047 1.95434494 -1.72682047 1.95434494 -4.00390625 4.07421875 C-5.77001158 6.37348796 -6.74622849 8.48868547 -7.66015625 11.23046875 C-8.32015625 10.90046875 -8.98015625 10.57046875 -9.66015625 10.23046875 C-9.04019547 8.93637586 -8.41399272 7.64527202 -7.78515625 6.35546875 C-7.43710938 5.63617188 -7.0890625 4.916875 -6.73046875 4.17578125 C-4.80160068 0.67002833 -4.1142948 0.25906445 0 0 Z " fill="#086472" transform="translate(114.66015625,30.76953125)"/>
<path d="M0 0 C0 0.33 0 0.66 0 1 C-0.87398437 0.89945313 -0.87398437 0.89945313 -1.765625 0.796875 C-6.61914781 0.7052991 -9.71573813 1.48639782 -13.3359375 4.73828125 C-16.36356501 7.70175656 -19.20575836 10.81686906 -22 14 C-22.99 13.67 -23.98 13.34 -25 13 C-23.625 11.5 -23.625 11.5 -22 10 C-21.34 10 -20.68 10 -20 10 C-19.67 9.01 -19.34 8.02 -19 7 C-18.34 7 -17.68 7 -17 7 C-16.67 6.01 -16.34 5.02 -16 4 C-11.52211761 -1.22419613 -6.33999059 -0.3997192 0 0 Z " fill="#06929B" transform="translate(62,42)"/>
</svg>
